<svg width="24" height="24" viewBox="0 0 24 24" fill="none" xmlns="http://www.w3.org/2000/svg">
<mask id="mask0_65_2872" style="mask-type:alpha" maskUnits="userSpaceOnUse" x="0" y="0" width="24" height="24">
<rect width="24" height="24" fill="#D9D9D9"/>
</mask>
<g mask="url(#mask0_65_2872)">
<path d="M6 14H18V12H6V14ZM6 11H18V9H6V11ZM6 8H18V6H6V8ZM22 22L18 18H4C3.45 18 2.97917 17.8042 2.5875 17.4125C2.19583 17.0208 2 16.55 2 16V4C2 3.45 2.19583 2.97917 2.5875 2.5875C2.97917 2.19583 3.45 2 4 2H20C20.55 2 21.0208 2.19583 21.4125 2.5875C21.8042 2.97917 22 3.45 22 4V22ZM4 16H18.85L20 17.125V4H4V16Z" fill="url(#paint0_linear_65_2872)"/>
</g>
<defs>
<linearGradient id="paint0_linear_65_2872" x1="19.7295" y1="5.24561" x2="6.64183" y2="13.8498" gradientUnits="userSpaceOnUse">
<stop stop-color="#CEB900"/>
<stop offset="0.31" stop-color="#FAFBC0"/>
<stop offset="0.54" stop-color="#FEFFDC"/>
<stop offset="0.81" stop-color="#FFEC42"/>
<stop offset="1" stop-color="#C4FF9F"/>
</linearGradient>
</defs>
</svg>
