<svg width="255" height="53" viewBox="0 0 255 53" fill="none" xmlns="http://www.w3.org/2000/svg">
<g filter="url(#filter0_d_507_2091)">
<path d="M14.8869 29.5979L18.0091 28.004H19.2476L18.455 26.8335C17.8485 25.9378 17.1479 25.1963 16.3307 24.6336L16.3307 24.6336L16.3277 24.6315C15.5263 24.0856 14.6566 23.7014 13.7209 23.5057C12.7872 23.3063 11.8367 23.2907 10.8645 23.4403C9.88466 23.591 8.91818 23.9196 7.96686 24.4038L7.96536 24.4046C6.51158 25.1486 5.34908 26.1605 4.50697 27.45C3.66022 28.7466 3.22857 30.2187 3.19423 31.8443H3.19422L3.19418 31.8469C3.1652 33.4933 3.61833 35.2013 4.51996 36.9607C5.41572 38.7137 6.52676 40.0776 7.87058 41.0219C9.20049 41.9565 10.6425 42.4727 12.1907 42.5487C13.7294 42.6242 15.2397 42.2792 16.716 41.5239L16.7169 41.5234C17.7691 40.9832 18.6512 40.3307 19.3533 39.5583C20.0436 38.7989 20.5644 37.966 20.9059 37.0709C21.2413 36.1917 21.4186 35.2905 21.4189 34.3658C21.4244 33.4512 21.2725 32.5777 20.9674 31.7446L20.6778 30.9535L19.9255 31.3327L16.6322 32.9928L16.0677 33.2773L16.2526 33.8819C16.3654 34.2506 16.4038 34.5942 16.38 34.9074L16.38 34.9081C16.3553 35.2371 16.274 35.5416 16.1404 35.8263C16.0003 36.1138 15.8107 36.3784 15.558 36.6227L15.558 36.6227L15.5535 36.6271C15.304 36.8723 14.9951 37.0925 14.6183 37.2832L14.616 37.2844C13.9562 37.6211 13.3199 37.7437 12.6925 37.6805C12.0745 37.6183 11.4623 37.3611 10.8538 36.8615L10.8538 36.8615L10.8491 36.8577C10.2441 36.3691 9.67119 35.6269 9.14392 34.5921L9.14385 34.592C8.63414 33.5922 8.37293 32.7016 8.32311 31.9179C8.27308 31.1311 8.41917 30.4773 8.72944 29.9238C9.03799 29.3733 9.51031 28.9237 10.1891 28.577C10.5728 28.3854 10.935 28.266 11.2883 28.2113L11.2896 28.2111C11.6402 28.1561 11.9766 28.1652 12.298 28.2312C12.6104 28.2952 12.9046 28.4194 13.1792 28.6039L13.1792 28.6039L13.1835 28.6067C13.4502 28.7832 13.6971 29.0283 13.9334 29.3627L14.3083 29.8933L14.8869 29.5979Z" fill="url(#paint0_linear_507_2091)" stroke="#4D411B" stroke-width="1.5"/>
<path d="M37.9054 23.7195H37.953L37.5878 22.7136C36.9135 20.8563 35.9788 19.3607 34.7488 18.2582C33.5336 17.1689 32.1573 16.485 30.6234 16.2224L37.9054 23.7195ZM37.9054 23.7195C38.3227 25.2063 38.4458 26.6204 38.2464 27.9552C38.0059 29.5645 37.3879 30.9726 36.3788 32.1569L36.3776 32.1583C35.375 33.3291 34.0882 34.1957 32.5483 34.7526L32.5481 34.7527C30.9922 35.3149 29.454 35.469 27.9302 35.2082L27.927 35.2076C26.4005 34.9396 25.0243 34.2563 23.8136 33.1659C22.5899 32.0638 21.6552 30.5688 20.986 28.7157L20.9857 28.7151C20.317 26.8577 20.0791 25.1082 20.3169 23.4778C20.5519 21.867 21.1705 20.4574 22.1808 19.2774C23.1837 18.1063 24.4705 17.2401 26.02 16.6781L26.0214 16.6776C27.5647 16.1214 29.1029 15.9612 30.6232 16.2223L37.9054 23.7195ZM32.5444 29.1684L32.5462 29.166C32.9138 28.6744 33.1384 28.0458 33.1888 27.2592L32.5444 29.1684ZM32.5444 29.1684C32.1753 29.6662 31.6508 30.049 30.942 30.3065C30.2297 30.5634 29.5844 30.6023 28.981 30.4566C28.3801 30.3115 27.8129 29.9768 27.2689 29.4006C26.7329 28.833 26.2621 28.0258 25.8686 26.9449C25.4767 25.868 25.3253 24.9464 25.3749 24.1663L32.5444 29.1684ZM32.695 24.4803C32.3016 23.3994 31.8308 22.5922 31.2948 22.0246C30.7507 21.4485 30.1835 21.1137 29.5827 20.9686C28.9792 20.8229 28.3339 20.8618 27.6217 21.1187C26.9128 21.3763 26.3884 21.759 26.0192 22.2568C25.649 22.756 25.4251 23.3812 25.3749 24.166L32.695 24.4803ZM32.695 24.4803C33.087 25.5572 33.2384 26.4788 33.1888 27.259L32.695 24.4803Z" fill="url(#paint1_linear_507_2091)" stroke="#4D411B" stroke-width="1.5"/>
<path d="M52.3574 9.92543L52.2106 9.3656H51.6319H51.6266H51.5297L51.436 9.39023L47.9266 10.3125L47.2017 10.503L47.3917 11.2281L49.5847 19.5935L41.2625 12.3943L40.9636 12.1357L40.5815 12.236L37.4884 13.0476L36.7631 13.2379L36.9532 13.9632L41.3268 30.6485L41.5168 31.3736L42.2421 31.1839L45.7672 30.2616L46.4931 30.0717L46.3029 29.346L44.1155 20.9971L52.4712 28.171L52.7698 28.4274L53.1505 28.3272L56.1962 27.5262L56.9209 27.3356L56.7309 26.6107L52.3574 9.92543Z" fill="url(#paint2_linear_507_2091)" stroke="#4D411B" stroke-width="1.5"/>
<path d="M67.7609 13.3848H68.9743L68.8758 13.1876L71.5291 12.6922L72.3751 12.5342L72.103 11.7178C71.7991 10.8062 71.3457 10.0026 70.7417 9.30373C70.1406 8.60831 69.4285 8.05022 68.612 7.61857C67.7937 7.18598 66.903 6.90186 65.9399 6.7692C64.9744 6.6362 63.9714 6.66642 62.9397 6.85907C61.7343 7.08098 60.6341 7.50485 59.6594 8.13733C58.6871 8.76827 57.8808 9.56917 57.2393 10.5402L57.2393 10.5402L57.2365 10.5445C56.5965 11.528 56.1723 12.6424 55.9564 13.8873L55.9563 13.8873L55.9558 13.8906C55.7439 15.1451 55.7759 16.4998 56.0476 17.9477C56.397 19.8275 57.0645 21.4253 58.0629 22.7124L58.0639 22.7137C59.0586 23.9904 60.3013 24.9057 61.774 25.4354C63.2499 25.9664 64.8465 26.0569 66.5487 25.7412L66.5512 25.7407C68.0728 25.4533 69.401 24.8886 70.5059 24.0177C71.6107 23.1522 72.4119 22.0513 72.887 20.732C73.3735 19.3961 73.4443 17.9179 73.1456 16.3228L73.1455 16.3226L72.7451 14.1882L72.6068 13.4513L71.8699 13.5893L64.7774 14.9174L64.0401 15.0554L64.1783 15.7927L64.6841 18.491L64.8223 19.2279L65.5592 19.0901L68.3677 18.5649C68.3529 18.8228 68.3053 19.0596 68.2293 19.2767C68.069 19.7201 67.7955 20.096 67.3885 20.4048C66.9732 20.7159 66.4238 20.9521 65.7005 21.0885C64.9314 21.2293 64.2664 21.1642 63.6839 20.9187C63.0974 20.6715 62.58 20.2431 62.1401 19.5854C61.699 18.9259 61.3603 18.0579 61.1526 16.9498C60.9448 15.8412 60.9493 14.9136 61.1293 14.1576C61.312 13.39 61.639 12.8032 62.0938 12.3645C62.5521 11.9277 63.1368 11.6301 63.8719 11.4907C64.2735 11.4179 64.6313 11.4025 64.9544 11.4356C65.2886 11.4751 65.5788 11.5555 65.8341 11.677C66.0955 11.8039 66.3293 11.9697 66.5351 12.1796L67.0706 11.6545L66.5351 12.1796C66.7455 12.3942 66.9329 12.6558 67.09 12.9701L67.6845 12.673L67.7503 13.3848H67.7609Z" fill="url(#paint3_linear_507_2091)" stroke="#4D411B" stroke-width="1.5"/>
<path d="M75.4425 23.1537L75.5759 24.2032L76.4183 23.7818L79.9061 23.3393L80.6506 23.2449L80.5558 22.5006L79.8781 17.1795L81.3225 16.996L85.0753 22.2862L85.3354 22.6528L85.7813 22.5963L89.7754 22.0903L91.0303 21.9314L90.2888 20.9066L86.2603 15.3388C86.9925 14.7664 87.5543 14.0594 87.9228 13.2212C88.372 12.1996 88.4997 11.0523 88.344 9.80654L88.344 9.80612C88.1883 8.56634 87.7846 7.48181 87.101 6.5842C86.4167 5.68028 85.5124 5.03735 84.4076 4.64912C83.2981 4.25924 82.0434 4.16956 80.6661 4.34386L80.6656 4.34392L73.9156 5.20296L73.1716 5.29763L73.2662 6.04157L75.4425 23.1537ZM79.3181 12.7823L78.8484 9.09417L80.5442 8.87804L80.5452 8.87792C81.1699 8.79744 81.6504 8.83288 82.0086 8.93802C82.3565 9.04014 82.5927 9.20788 82.759 9.42863C82.9375 9.66546 83.0747 9.99797 83.1359 10.4703L83.136 10.4712C83.1969 10.9367 83.1456 11.2761 83.0355 11.5255C82.9288 11.7672 82.7429 11.9796 82.4317 12.158C82.1152 12.3394 81.6573 12.483 81.023 12.5654C81.0227 12.5655 81.0224 12.5655 81.022 12.5656L79.3181 12.7823Z" fill="url(#paint4_linear_507_2091)" stroke="#4D411B" stroke-width="1.5"/>
<path d="M95.1204 21.1348L95.9755 17.6449L101.093 17.2641L102.45 20.5865L102.656 21.0912L103.2 21.0507L107.094 20.7609L108.143 20.6828L107.727 19.7168L100.524 2.95775L100.313 2.46636L99.7796 2.50597L95.0952 2.85379L94.5621 2.89338L94.4256 3.41024L89.7675 21.0494L89.4988 22.0669L90.5483 21.9888L94.0993 21.7245L94.8033 22.4292L95.1204 21.1348ZM97.9522 9.57753L99.3637 13.0323L97.0637 13.2035L97.9522 9.57753Z" fill="url(#paint5_linear_507_2091)" stroke="#4D411B" stroke-width="1.5"/>
<path d="M104.966 5.87977L104.989 6.6303L105.739 6.60705L110.264 6.4669L110.678 19.9517L110.701 20.7013L111.451 20.6783L115.055 20.5676L115.805 20.5446L115.782 19.795L115.368 6.30979L119.893 6.16963L120.641 6.14644L120.619 5.39764L120.53 2.39366L120.507 1.64318L119.757 1.66637L105.603 2.10379L104.854 2.12694L104.877 2.87579L104.966 5.87977Z" fill="url(#paint6_linear_507_2091)" stroke="#4D411B" stroke-width="1.5"/>
<path d="M133.394 2.57379L133.401 1.82408H133.411H134.174L134.174 1.83738L137.06 1.88744L137.81 1.90044L137.797 2.65003L137.607 13.8489C137.584 15.2316 137.235 16.4653 136.53 17.5319C135.837 18.5885 134.879 19.3991 133.682 19.9596C132.48 20.5224 131.109 20.7804 129.588 20.7523C129.588 20.7523 129.588 20.7523 129.588 20.7523L129.601 20.0024C128.168 19.9761 126.925 19.6967 125.86 19.1539C124.796 18.6111 123.974 17.8627 123.399 16.9088L133.394 2.57379ZM133.394 2.57379L132.661 2.56138L132.477 13.4495L132.477 13.4502C132.468 13.9903 132.341 14.4413 132.117 14.8263C131.888 15.2106 131.573 15.5109 131.163 15.7325C130.772 15.9438 130.282 16.0573 129.676 16.0483C129.078 16.0393 128.595 15.9069 128.2 15.6792L128.197 15.6776C127.791 15.4461 127.494 15.1409 127.276 14.7446C127.063 14.3588 126.954 13.9065 126.963 13.3587C126.963 13.3586 126.963 13.3584 126.963 13.3582L127.148 2.47084L127.16 1.72125L126.411 1.70825L122.764 1.64501L122.014 1.632L122.001 2.3822L121.812 13.5812L121.812 13.5813C121.789 14.9583 122.096 16.2076 122.758 17.297L133.394 2.57379Z" fill="url(#paint7_linear_507_2091)" stroke="#4D411B" stroke-width="1.5"/>
<path d="M138.823 19.9877L138.821 20.0109V20.034V20.0393V20.7445L139.525 20.7879L150.543 21.4677L151.292 21.5139L151.338 20.7652L151.522 17.7665L151.568 17.0184L150.82 16.9719L144.192 16.5599L145.025 3.09474L145.072 2.34641L144.323 2.29984L140.682 2.07323L139.933 2.02662L139.887 2.77549L138.823 19.9877Z" fill="url(#paint8_linear_507_2091)" stroke="#4D411B" stroke-width="1.5"/>
<path d="M156.858 21.5454L158.344 18.2694L163.443 18.8406L164.166 22.3615L164.276 22.8957L164.818 22.956L168.702 23.3881L169.746 23.5044L169.516 22.4785L165.522 4.67604L165.405 4.15426L164.874 4.09486L160.205 3.57312L159.674 3.51375L159.444 3.99661L151.614 20.4763L151.162 21.4272L152.209 21.5436L156.092 21.9757L156.157 21.3938L156.858 21.5454ZM161.773 10.7091L162.524 14.3627L160.233 14.1061L161.773 10.7091Z" fill="url(#paint9_linear_507_2091)" stroke="#4D411B" stroke-width="1.5"/>
<path d="M169.419 8.36232L169.279 9.23198H170.105L174.516 9.94576L172.36 23.2661L172.24 24.0067L172.98 24.1263L176.537 24.7008L177.278 24.8203L177.397 24.08L179.549 10.7598L184.019 11.4832L184.76 11.6031L184.88 10.8625L185.359 7.89543L185.479 7.15513L184.738 7.0354L170.759 4.77451L170.018 4.65476L169.899 5.39524L169.419 8.36232Z" fill="url(#paint10_linear_507_2091)" stroke="#4D411B" stroke-width="1.5"/>
<path d="M191.756 9.28024L191.101 9.14642L191.177 8.39542L187.604 7.66287L186.869 7.51215L186.719 8.24726L183.262 25.1433L183.112 25.8778L183.846 26.0283L187.419 26.7609L188.154 26.9117L188.304 26.1763L191.756 9.28024Z" fill="url(#paint11_linear_507_2091)" stroke="#4D411B" stroke-width="1.5"/>
<path d="M208.546 22.3131L208.653 21.8984L208.643 21.8893C209.046 20.1409 209.082 18.5142 208.716 17.0299C208.327 15.4484 207.575 14.1038 206.461 13.0244C205.353 11.9455 203.991 11.2058 202.406 10.7967C200.81 10.3821 199.26 10.3723 197.771 10.7721C196.269 11.1757 194.968 11.9943 193.865 13.184C192.743 14.3927 191.951 15.979 191.459 17.8863C190.967 19.794 190.894 21.5559 191.283 23.157C191.667 24.739 192.413 26.0839 193.527 27.169C194.631 28.2496 195.994 28.989 197.593 29.4031C199.18 29.8181 200.724 29.8273 202.217 29.428C203.723 29.0252 205.03 28.213 206.136 27.0151C207.256 25.8078 208.054 24.2278 208.546 22.3131ZM202.931 16.3568L202.933 16.3593C203.347 16.8143 203.63 17.4146 203.748 18.1916C203.866 18.9669 203.803 19.8997 203.516 21.0105C203.227 22.1199 202.831 22.971 202.354 23.5836C201.87 24.2051 201.331 24.5962 200.749 24.7945C200.161 24.9946 199.511 25.0152 198.781 24.8259C198.051 24.6365 197.495 24.305 197.079 23.8431L197.079 23.8431L197.077 23.8406C196.664 23.3856 196.381 22.7854 196.262 22.0083C196.145 21.2331 196.207 20.3002 196.495 19.1894C196.783 18.0801 197.179 17.229 197.656 16.6163C198.141 15.9948 198.679 15.6037 199.262 15.4054C199.849 15.2054 200.499 15.1847 201.229 15.374C201.96 15.5634 202.515 15.8949 202.931 16.3568L202.931 16.3568Z" fill="url(#paint12_linear_507_2091)" stroke="#4D411B" stroke-width="1.5"/>
<path d="M227.98 20.017L228.337 19.0152H227.398L224.1 17.8413L223.394 17.5898L223.142 18.2961L220.24 26.4422L217.423 15.8051L217.322 15.4234L216.95 15.2907L213.936 14.2156L213.229 13.9636L212.978 14.6702L207.187 30.918L206.935 31.6248L207.642 31.8764L211.077 33.0991L211.783 33.3504L212.035 32.6444L214.937 24.5091L217.792 35.1482L217.894 35.5279L218.264 35.6601L221.23 36.7194L221.937 36.9718L222.189 36.2649L227.98 20.017Z" fill="url(#paint13_linear_507_2091)" stroke="#4D411B" stroke-width="1.5"/>
<path d="M236.971 29.6413L236.922 29.7895L236.916 29.8053L237.621 30.0522L237.305 30.7006L240.446 32.2289L241.132 32.5627L241.454 31.8713C241.942 30.8221 242.119 29.7366 241.959 28.6471C241.799 27.5631 241.329 26.5637 240.583 25.6597L240.005 26.1369L240.583 25.6597C239.832 24.7488 238.827 24.0025 237.603 23.407L237.603 23.407C236.397 22.8207 235.188 22.4929 233.986 22.4518C232.789 22.411 231.692 22.6448 230.714 23.167L230.714 23.167L230.711 23.1687C229.714 23.7079 228.96 24.5256 228.444 25.5978C227.799 26.9075 227.706 28.2272 228.224 29.4933C228.71 30.6812 229.59 31.7765 230.809 32.7842L232.287 34.0261L232.287 34.0261L232.291 34.0289C232.766 34.4236 233.14 34.7797 233.415 35.0974L233.415 35.0974L233.419 35.1016C233.677 35.395 233.806 35.6423 233.858 35.8367C233.895 35.9776 233.888 36.136 233.786 36.3447L233.785 36.348C233.679 36.5688 233.528 36.7194 233.311 36.8247C233.086 36.934 232.799 36.9909 232.414 36.9625C232.033 36.9292 231.598 36.8078 231.114 36.573C230.617 36.3265 230.232 36.046 229.942 35.7354C229.664 35.4316 229.506 35.1197 229.436 34.7884C229.373 34.4906 229.403 34.1376 229.577 33.7051L229.837 33.0569L229.209 32.7511L226.037 31.207L225.347 30.8708L225.027 31.5691C224.464 32.7994 224.24 34.0174 224.419 35.1981C224.596 36.3627 225.115 37.4095 225.936 38.3427C226.754 39.2718 227.838 40.0492 229.161 40.6884L236.971 29.6413ZM236.971 29.6413C237.086 29.2442 237.043 28.9081 236.875 28.5899L236.874 28.5874C236.678 28.2127 236.285 27.8387 235.588 27.4967C235.105 27.265 234.715 27.1554 234.397 27.1326C234.063 27.1088 233.829 27.1632 233.656 27.2542C233.476 27.3483 233.348 27.4778 233.255 27.6706L233.248 27.6851L233.24 27.6992C233.154 27.8597 233.14 27.9749 233.151 28.0677L233.152 28.0749L233.153 28.0821C233.166 28.2215 233.217 28.3823 233.329 28.5749C233.444 28.7726 233.602 28.9765 233.817 29.1959L233.822 29.2016L233.822 29.2017C234.039 29.4274 234.285 29.6506 234.563 29.8658L234.571 29.8721L234.579 29.8786L235.808 30.8873C236.44 31.3926 237.003 31.9316 237.48 32.5004C237.968 33.0804 238.347 33.6931 238.615 34.3386C238.893 35.0044 239.023 35.6995 239.005 36.4172C238.986 37.1469 238.797 37.8827 238.447 38.6141L238.443 38.6222L238.443 38.6222C237.916 39.6874 237.181 40.5083 236.217 41.0553C235.257 41.6006 234.168 41.822 232.965 41.7636L232.965 41.7636C231.758 41.7047 230.483 41.3304 229.161 40.6884L236.971 29.6413Z" fill="url(#paint14_linear_507_2091)" stroke="#4D411B" stroke-width="1.5"/>
<path d="M238.751 45.9444L239.901 46.6678V46.3367C239.975 46.344 240.049 46.3483 240.125 46.3494C240.602 46.3565 241.056 46.2485 241.479 46.0406C241.927 45.8202 242.292 45.4888 242.563 45.0675L242.564 45.0675L242.571 45.0556C242.971 44.408 243.07 43.6957 242.894 42.9631L242.894 42.9631L242.892 42.9548C242.785 42.5309 242.601 42.1524 242.338 41.8319L242.916 42.1933L243.534 42.5799L243.938 41.9724L250.625 31.9118L251.052 31.2695L250.398 30.8607L247.22 28.8739L246.567 28.4652L246.176 29.1296L240.053 39.5434L239.683 40.1726L240.302 40.5595L240.86 40.9084C240.454 40.8091 240.029 40.8079 239.595 40.904L239.593 40.9044C238.862 41.0677 238.266 41.479 237.871 42.1249C237.464 42.7657 237.349 43.4761 237.519 44.2134L237.519 44.2134L237.52 44.2201C237.697 44.9548 238.113 45.543 238.751 45.9444Z" fill="url(#paint15_linear_507_2091)" stroke="#4D411B" stroke-width="1.5"/>
</g>
<defs>
<filter id="filter0_d_507_2091" x="0.442871" y="0.869141" width="253.66" height="51.1567" filterUnits="userSpaceOnUse" color-interpolation-filters="sRGB">
<feFlood flood-opacity="0" result="BackgroundImageFix"/>
<feColorMatrix in="SourceAlpha" type="matrix" values="0 0 0 0 0 0 0 0 0 0 0 0 0 0 0 0 0 0 127 0" result="hardAlpha"/>
<feOffset dy="2"/>
<feGaussianBlur stdDeviation="1"/>
<feComposite in2="hardAlpha" operator="out"/>
<feColorMatrix type="matrix" values="0 0 0 0 0 0 0 0 0 0 0 0 0 0 0 0 0 0 0.16 0"/>
<feBlend mode="normal" in2="BackgroundImageFix" result="effect1_dropShadow_507_2091"/>
<feBlend mode="normal" in="SourceGraphic" in2="effect1_dropShadow_507_2091" result="shape"/>
</filter>
<linearGradient id="paint0_linear_507_2091" x1="3.94287" y1="32.9496" x2="20.669" y2="32.9496" gradientUnits="userSpaceOnUse">
<stop stop-color="#EFD89C"/>
<stop offset="1" stop-color="#FFD669"/>
</linearGradient>
<linearGradient id="paint1_linear_507_2091" x1="20.9771" y1="25.7158" x2="37.5897" y2="25.7158" gradientUnits="userSpaceOnUse">
<stop stop-color="#EFD89C"/>
<stop offset="1" stop-color="#FFD669"/>
</linearGradient>
<linearGradient id="paint2_linear_507_2091" x1="37.6787" y1="20.287" x2="56.0054" y2="20.287" gradientUnits="userSpaceOnUse">
<stop stop-color="#EFD89C"/>
<stop offset="1" stop-color="#FFD669"/>
</linearGradient>
<linearGradient id="paint3_linear_507_2091" x1="56.5674" y1="16.3056" x2="72.5738" y2="16.3056" gradientUnits="userSpaceOnUse">
<stop stop-color="#EFD89C"/>
<stop offset="1" stop-color="#FFD669"/>
</linearGradient>
<linearGradient id="paint4_linear_507_2091" x1="74.0103" y1="14.0339" x2="89.6812" y2="14.0339" gradientUnits="userSpaceOnUse">
<stop stop-color="#EFD89C"/>
<stop offset="1" stop-color="#FFD669"/>
</linearGradient>
<linearGradient id="paint5_linear_507_2091" x1="90.4927" y1="12.2474" x2="107.038" y2="12.2474" gradientUnits="userSpaceOnUse">
<stop stop-color="#EFD89C"/>
<stop offset="1" stop-color="#FFD669"/>
</linearGradient>
<linearGradient id="paint6_linear_507_2091" x1="105.626" y1="11.1723" x2="119.869" y2="11.1723" gradientUnits="userSpaceOnUse">
<stop stop-color="#EFD89C"/>
<stop offset="1" stop-color="#FFD669"/>
</linearGradient>
<linearGradient id="paint7_linear_507_2091" x1="122.561" y1="11.1996" x2="137.047" y2="11.1996" gradientUnits="userSpaceOnUse">
<stop stop-color="#EFD89C"/>
<stop offset="1" stop-color="#FFD669"/>
</linearGradient>
<linearGradient id="paint8_linear_507_2091" x1="139.571" y1="11.7705" x2="150.774" y2="11.7705" gradientUnits="userSpaceOnUse">
<stop stop-color="#EFD89C"/>
<stop offset="1" stop-color="#FFD669"/>
</linearGradient>
<linearGradient id="paint9_linear_507_2091" x1="152.292" y1="13.4806" x2="168.784" y2="13.4806" gradientUnits="userSpaceOnUse">
<stop stop-color="#EFD89C"/>
<stop offset="1" stop-color="#FFD669"/>
</linearGradient>
<linearGradient id="paint10_linear_507_2091" x1="170.16" y1="14.7376" x2="184.619" y2="14.7376" gradientUnits="userSpaceOnUse">
<stop stop-color="#EFD89C"/>
<stop offset="1" stop-color="#FFD669"/>
</linearGradient>
<linearGradient id="paint11_linear_507_2091" x1="183.997" y1="17.2119" x2="191.026" y2="17.2119" gradientUnits="userSpaceOnUse">
<stop stop-color="#EFD89C"/>
<stop offset="1" stop-color="#FFD669"/>
</linearGradient>
<linearGradient id="paint12_linear_507_2091" x1="191.784" y1="20.1" x2="208.22" y2="20.1" gradientUnits="userSpaceOnUse">
<stop stop-color="#EFD89C"/>
<stop offset="1" stop-color="#FFD669"/>
</linearGradient>
<linearGradient id="paint13_linear_507_2091" x1="207.893" y1="25.4675" x2="227.274" y2="25.4675" gradientUnits="userSpaceOnUse">
<stop stop-color="#EFD89C"/>
<stop offset="1" stop-color="#FFD669"/>
</linearGradient>
<linearGradient id="paint14_linear_507_2091" x1="225.109" y1="32.11" x2="241.266" y2="32.11" gradientUnits="userSpaceOnUse">
<stop stop-color="#EFD89C"/>
<stop offset="1" stop-color="#FFD669"/>
</linearGradient>
<linearGradient id="paint15_linear_507_2091" x1="238.193" y1="37.5548" x2="250" y2="37.5548" gradientUnits="userSpaceOnUse">
<stop stop-color="#EFD89C"/>
<stop offset="1" stop-color="#FFD669"/>
</linearGradient>
</defs>
</svg>
