<svg width="35" height="33" viewBox="0 0 35 33" fill="none" xmlns="http://www.w3.org/2000/svg">
<mask id="mask0_32_259" style="mask-type:alpha" maskUnits="userSpaceOnUse" x="0" y="0" width="35" height="33">
<rect width="35" height="33" fill="#D9D9D9"/>
</mask>
<g mask="url(#mask0_32_259)">
<path d="M30.4848 16.0406L33.2032 13.4775L33.1678 13.3167C32.409 9.94812 30.4275 6.88454 27.5863 4.68818C24.7041 2.46351 21.0632 1.2373 17.3309 1.2373C13.5985 1.2373 9.95762 2.46351 7.07682 4.68947C4.2356 6.88454 2.25275 9.94812 1.49536 13.3167L1.45988 13.4775L4.17829 16.0406L1.3125 18.7413L1.33843 18.8931C1.93069 22.4469 3.85623 25.7048 6.76022 28.0671C9.69561 30.4539 13.4498 31.7689 17.3322 31.7689C21.2147 31.7689 24.9675 30.4539 27.9029 28.0671C30.8069 25.7048 32.7324 22.4469 33.3247 18.8931L33.3506 18.7413L30.4862 16.0406H30.4848Z" fill="url(#paint0_linear_32_259)"/>
<path style="mix-blend-mode:multiply" opacity="0.36" d="M30.4848 16.0406L33.2032 13.4775L33.1678 13.3167C32.409 9.94812 30.4275 6.88454 27.5863 4.68818C24.7041 2.46351 21.0632 1.2373 17.3309 1.2373C13.5985 1.2373 9.95762 2.46351 7.07682 4.68947C4.2356 6.88454 2.25275 9.94812 1.49536 13.3167L1.45988 13.4775L4.17829 16.0406L1.3125 18.7413L1.33843 18.8931C1.93069 22.4469 3.85623 25.7048 6.76022 28.0671C9.69561 30.4539 13.4498 31.7689 17.3322 31.7689C21.2147 31.7689 24.9675 30.4539 27.9029 28.0671C30.8069 25.7048 32.7324 22.4469 33.3247 18.8931L33.3506 18.7413L30.4862 16.0406H30.4848Z" fill="url(#paint1_radial_32_259)"/>
<path d="M3.90761 18.3958L1.86865 20.3182L2.09542 20.532L4.13438 18.6096L3.90761 18.3958Z" fill="url(#paint2_linear_32_259)"/>
<path d="M30.7546 18.3963L30.5278 18.6101L32.5668 20.5326L32.7936 20.3187L30.7546 18.3963Z" fill="url(#paint3_linear_32_259)"/>
<path d="M2.30929 11.6434L2.08252 11.8572L4.12148 13.7796L4.34825 13.5658L2.30929 11.6434Z" fill="url(#paint4_linear_32_259)"/>
<path d="M32.3524 11.6435L30.3135 13.5659L30.5402 13.7797L32.5792 11.8573L32.3524 11.6435Z" fill="url(#paint5_linear_32_259)"/>
<path d="M4.06933 15.3731L3.75 15.3461C4.30269 9.48267 8.96846 4.75927 15.119 3.81484V1.63135H15.4397V4.07347L15.3032 4.09277C9.2332 4.96771 4.61383 9.60619 4.06933 15.3731Z" fill="url(#paint6_linear_32_259)"/>
<path d="M15.4388 31.3522H15.1181V29.1932C8.62778 28.1947 3.83237 22.9927 3.69727 16.7741L4.01796 16.7677C4.1517 22.882 8.89799 27.9901 15.3037 28.914L15.4402 28.9333V31.3522H15.4388Z" fill="url(#paint7_linear_32_259)"/>
<path d="M30.5931 15.3731C30.0486 9.60619 25.4292 4.96771 19.3606 4.09405L19.2241 4.07475V1.63135H19.5448V3.81484C25.694 4.75927 30.3597 9.48395 30.9124 15.3461L30.5931 15.3731Z" fill="url(#paint8_linear_32_259)"/>
<path d="M19.5448 31.3522H19.2241V28.9333L19.3606 28.914C25.7649 27.9901 30.5099 22.8833 30.6436 16.7677L30.9643 16.7741C30.8278 22.9927 26.0338 28.1947 19.5448 29.1932V31.3522Z" fill="url(#paint9_linear_32_259)"/>
<path d="M17.3309 31.7689C13.4484 31.7689 9.69424 30.4539 6.75886 28.0671C3.85623 25.7048 1.93069 22.4469 1.33843 18.8931L1.3125 18.7413L4.17692 16.0406L1.45852 13.4775L1.494 13.3167C2.25275 9.94812 4.2356 6.88454 7.07682 4.68947C9.95762 2.46351 13.5999 1.2373 17.3309 1.2373C21.0619 1.2373 24.7028 2.46351 27.5836 4.68947C30.4248 6.88454 32.4063 9.94941 33.165 13.3179L33.2005 13.4788L30.4821 16.0418L33.3465 18.7426L33.3206 18.8944C32.7283 22.4482 30.8028 25.7061 27.8988 28.0684C24.9648 30.4552 21.2106 31.7702 17.3282 31.7702L17.3309 31.7689ZM1.99892 18.951C3.25851 26.0368 9.6806 31.1629 17.3322 31.1629C24.9839 31.1629 31.4046 26.0368 32.6628 18.951L29.576 16.0406L32.5004 13.2832C30.9229 6.64393 24.5718 1.84333 17.3309 1.84333C10.09 1.84333 3.7375 6.64393 2.16132 13.2819L5.08579 16.0393L1.99892 18.9497V18.951Z" fill="url(#paint10_linear_32_259)"/>
</g>
<mask id="mask1_32_259" style="mask-type:alpha" maskUnits="userSpaceOnUse" x="10" y="9" width="15" height="14">
<rect x="10.5" y="9.13245" width="14" height="13.2" fill="#D9D9D9"/>
</mask>
<g mask="url(#mask1_32_259)">
<path d="M14.8752 21.2324C14.3113 21.2324 13.83 21.0445 13.4314 20.6687C13.0328 20.2928 12.8335 19.8391 12.8335 19.3074V12.1574C12.8335 11.6258 13.0328 11.172 13.4314 10.7962C13.83 10.4203 14.3113 10.2324 14.8752 10.2324H22.1668V18.4824C21.9238 18.4824 21.7172 18.5626 21.547 18.723C21.3769 18.8835 21.2918 19.0783 21.2918 19.3074C21.2918 19.5366 21.3769 19.7314 21.547 19.8918C21.7172 20.0522 21.9238 20.1324 22.1668 20.1324V21.2324H14.8752ZM14.0002 17.5612C14.1363 17.497 14.2772 17.4512 14.4231 17.4237C14.5689 17.3962 14.7196 17.3824 14.8752 17.3824H15.1668V11.3324H14.8752C14.6321 11.3324 14.4255 11.4126 14.2554 11.573C14.0852 11.7335 14.0002 11.9283 14.0002 12.1574V17.5612ZM16.3335 17.3824H21.0002V11.3324H16.3335V17.3824ZM14.8752 20.1324H20.3147C20.2564 20.0041 20.2102 19.8735 20.1762 19.7405C20.1422 19.6076 20.1252 19.4633 20.1252 19.3074C20.1252 19.1608 20.1397 19.0187 20.1689 18.8812C20.1981 18.7437 20.2467 18.6108 20.3147 18.4824H14.8752C14.6224 18.4824 14.4134 18.5626 14.2481 18.723C14.0828 18.8835 14.0002 19.0783 14.0002 19.3074C14.0002 19.5458 14.0828 19.7428 14.2481 19.8987C14.4134 20.0545 14.6224 20.1324 14.8752 20.1324Z" fill="url(#paint11_linear_32_259)"/>
</g>
<defs>
<linearGradient id="paint0_linear_32_259" x1="17.3309" y1="31.7689" x2="17.3309" y2="1.2373" gradientUnits="userSpaceOnUse">
<stop stop-color="#171D47"/>
<stop offset="1" stop-color="#352975"/>
</linearGradient>
<radialGradient id="paint1_radial_32_259" cx="0" cy="0" r="1" gradientUnits="userSpaceOnUse" gradientTransform="translate(17.3309 16.5025) scale(16.1044 15.1841)">
<stop stop-color="white"/>
<stop offset="1"/>
</radialGradient>
<linearGradient id="paint2_linear_32_259" x1="3.00092" y1="20.5325" x2="3.00092" y2="18.3954" gradientUnits="userSpaceOnUse">
<stop offset="0.03" stop-color="#947553"/>
<stop offset="0.24" stop-color="#473017"/>
<stop offset="0.77" stop-color="#CCAC68"/>
<stop offset="0.98" stop-color="#FFDE99"/>
</linearGradient>
<linearGradient id="paint3_linear_32_259" x1="31.6595" y1="1.23798" x2="31.6595" y2="18.3959" gradientUnits="userSpaceOnUse">
<stop offset="0.03" stop-color="#947553"/>
<stop offset="0.24" stop-color="#473017"/>
<stop offset="0.77" stop-color="#CCAC68"/>
<stop offset="0.98" stop-color="#FFDE99"/>
</linearGradient>
<linearGradient id="paint4_linear_32_259" x1="3.21522" y1="13.7794" x2="3.21522" y2="11.6422" gradientUnits="userSpaceOnUse">
<stop offset="0.03" stop-color="#947553"/>
<stop offset="0.24" stop-color="#473017"/>
<stop offset="0.77" stop-color="#CCAC68"/>
<stop offset="0.98" stop-color="#FFDE99"/>
</linearGradient>
<linearGradient id="paint5_linear_32_259" x1="31.4456" y1="13.7804" x2="31.4456" y2="11.6432" gradientUnits="userSpaceOnUse">
<stop offset="0.03" stop-color="#947553"/>
<stop offset="0.24" stop-color="#473017"/>
<stop offset="0.77" stop-color="#CCAC68"/>
<stop offset="0.98" stop-color="#FFDE99"/>
</linearGradient>
<linearGradient id="paint6_linear_32_259" x1="9.59484" y1="15.3731" x2="9.59484" y2="1.63135" gradientUnits="userSpaceOnUse">
<stop offset="0.03" stop-color="#947553"/>
<stop offset="0.24" stop-color="#473017"/>
<stop offset="0.77" stop-color="#CCAC68"/>
<stop offset="0.98" stop-color="#FFDE99"/>
</linearGradient>
<linearGradient id="paint7_linear_32_259" x1="9.56667" y1="31.3522" x2="9.56667" y2="16.7677" gradientUnits="userSpaceOnUse">
<stop offset="0.03" stop-color="#947553"/>
<stop offset="0.24" stop-color="#473017"/>
<stop offset="0.77" stop-color="#CCAC68"/>
<stop offset="0.98" stop-color="#FFDE99"/>
</linearGradient>
<linearGradient id="paint8_linear_32_259" x1="25.069" y1="15.3731" x2="25.069" y2="1.63135" gradientUnits="userSpaceOnUse">
<stop offset="0.03" stop-color="#947553"/>
<stop offset="0.24" stop-color="#473017"/>
<stop offset="0.77" stop-color="#CCAC68"/>
<stop offset="0.98" stop-color="#FFDE99"/>
</linearGradient>
<linearGradient id="paint9_linear_32_259" x1="25.0949" y1="31.3522" x2="25.0949" y2="16.7677" gradientUnits="userSpaceOnUse">
<stop offset="0.03" stop-color="#947553"/>
<stop offset="0.24" stop-color="#473017"/>
<stop offset="0.77" stop-color="#CCAC68"/>
<stop offset="0.98" stop-color="#FFDE99"/>
</linearGradient>
<linearGradient id="paint10_linear_32_259" x1="17.3309" y1="31.7689" x2="17.3309" y2="1.2373" gradientUnits="userSpaceOnUse">
<stop offset="0.03" stop-color="#947553"/>
<stop offset="0.24" stop-color="#473017"/>
<stop offset="0.77" stop-color="#CCAC68"/>
<stop offset="0.98" stop-color="#FFDE99"/>
</linearGradient>
<linearGradient id="paint11_linear_32_259" x1="21.1072" y1="12.0175" x2="14.4358" y2="15.739" gradientUnits="userSpaceOnUse">
<stop stop-color="#CEB900"/>
<stop offset="0.31" stop-color="#FAFBC0"/>
<stop offset="0.54" stop-color="#FEFFDC"/>
<stop offset="0.81" stop-color="#FFEC42"/>
<stop offset="1" stop-color="#C4FF9F"/>
</linearGradient>
</defs>
</svg>
