<svg width="35" height="33" viewBox="0 0 35 33" fill="none" xmlns="http://www.w3.org/2000/svg">
<mask id="mask0_32_282" style="mask-type:alpha" maskUnits="userSpaceOnUse" x="0" y="0" width="35" height="33">
<rect width="35" height="33" fill="#D9D9D9"/>
</mask>
<g mask="url(#mask0_32_282)">
<path d="M30.4848 16.0406L33.2032 13.4775L33.1678 13.3167C32.409 9.94812 30.4275 6.88454 27.5863 4.68818C24.7041 2.46351 21.0632 1.2373 17.3309 1.2373C13.5985 1.2373 9.95762 2.46351 7.07682 4.68947C4.2356 6.88454 2.25275 9.94812 1.49536 13.3167L1.45988 13.4775L4.17829 16.0406L1.3125 18.7413L1.33843 18.8931C1.93069 22.4469 3.85623 25.7048 6.76022 28.0671C9.69561 30.4539 13.4498 31.7689 17.3322 31.7689C21.2147 31.7689 24.9675 30.4539 27.9029 28.0671C30.8069 25.7048 32.7324 22.4469 33.3247 18.8931L33.3506 18.7413L30.4862 16.0406H30.4848Z" fill="url(#paint0_linear_32_282)"/>
<path style="mix-blend-mode:multiply" opacity="0.36" d="M30.4848 16.0406L33.2032 13.4775L33.1678 13.3167C32.409 9.94812 30.4275 6.88454 27.5863 4.68818C24.7041 2.46351 21.0632 1.2373 17.3309 1.2373C13.5985 1.2373 9.95762 2.46351 7.07682 4.68947C4.2356 6.88454 2.25275 9.94812 1.49536 13.3167L1.45988 13.4775L4.17829 16.0406L1.3125 18.7413L1.33843 18.8931C1.93069 22.4469 3.85623 25.7048 6.76022 28.0671C9.69561 30.4539 13.4498 31.7689 17.3322 31.7689C21.2147 31.7689 24.9675 30.4539 27.9029 28.0671C30.8069 25.7048 32.7324 22.4469 33.3247 18.8931L33.3506 18.7413L30.4862 16.0406H30.4848Z" fill="url(#paint1_radial_32_282)"/>
<path d="M3.90761 18.3958L1.86865 20.3182L2.09542 20.532L4.13438 18.6096L3.90761 18.3958Z" fill="url(#paint2_linear_32_282)"/>
<path d="M30.7546 18.3963L30.5278 18.6101L32.5668 20.5326L32.7936 20.3187L30.7546 18.3963Z" fill="url(#paint3_linear_32_282)"/>
<path d="M2.30929 11.6434L2.08252 11.8572L4.12148 13.7796L4.34825 13.5658L2.30929 11.6434Z" fill="url(#paint4_linear_32_282)"/>
<path d="M32.3524 11.6435L30.3135 13.5659L30.5402 13.7797L32.5792 11.8573L32.3524 11.6435Z" fill="url(#paint5_linear_32_282)"/>
<path d="M4.06933 15.3731L3.75 15.3461C4.30269 9.48267 8.96846 4.75927 15.119 3.81484V1.63135H15.4397V4.07347L15.3032 4.09277C9.2332 4.96771 4.61383 9.60619 4.06933 15.3731Z" fill="url(#paint6_linear_32_282)"/>
<path d="M15.4388 31.3522H15.1181V29.1932C8.62778 28.1947 3.83237 22.9927 3.69727 16.7741L4.01796 16.7677C4.1517 22.882 8.89799 27.9901 15.3037 28.914L15.4402 28.9333V31.3522H15.4388Z" fill="url(#paint7_linear_32_282)"/>
<path d="M30.5931 15.3731C30.0486 9.60619 25.4292 4.96771 19.3606 4.09405L19.2241 4.07475V1.63135H19.5448V3.81484C25.694 4.75927 30.3597 9.48395 30.9124 15.3461L30.5931 15.3731Z" fill="url(#paint8_linear_32_282)"/>
<path d="M19.5448 31.3522H19.2241V28.9333L19.3606 28.914C25.7649 27.9901 30.5099 22.8833 30.6436 16.7677L30.9643 16.7741C30.8278 22.9927 26.0338 28.1947 19.5448 29.1932V31.3522Z" fill="url(#paint9_linear_32_282)"/>
<path d="M17.3309 31.7689C13.4484 31.7689 9.69424 30.4539 6.75886 28.0671C3.85623 25.7048 1.93069 22.4469 1.33843 18.8931L1.3125 18.7413L4.17692 16.0406L1.45852 13.4775L1.494 13.3167C2.25275 9.94812 4.2356 6.88454 7.07682 4.68947C9.95762 2.46351 13.5999 1.2373 17.3309 1.2373C21.0619 1.2373 24.7028 2.46351 27.5836 4.68947C30.4248 6.88454 32.4063 9.94941 33.165 13.3179L33.2005 13.4788L30.4821 16.0418L33.3465 18.7426L33.3206 18.8944C32.7283 22.4482 30.8028 25.7061 27.8988 28.0684C24.9648 30.4552 21.2106 31.7702 17.3282 31.7702L17.3309 31.7689ZM1.99892 18.951C3.25851 26.0368 9.6806 31.1629 17.3322 31.1629C24.9839 31.1629 31.4046 26.0368 32.6628 18.951L29.576 16.0406L32.5004 13.2832C30.9229 6.64393 24.5718 1.84333 17.3309 1.84333C10.09 1.84333 3.7375 6.64393 2.16132 13.2819L5.08579 16.0393L1.99892 18.9497V18.951Z" fill="url(#paint10_linear_32_282)"/>
</g>
<mask id="mask1_32_282" style="mask-type:alpha" maskUnits="userSpaceOnUse" x="10" y="9" width="15" height="14">
<rect x="10.5" y="9.13245" width="14" height="13.2" fill="#D9D9D9"/>
</mask>
<g mask="url(#mask1_32_282)">
<path d="M15.896 21.2324L15.6627 19.4724C15.5363 19.4266 15.4172 19.3716 15.3054 19.3074C15.1936 19.2433 15.0842 19.1745 14.9773 19.1012L13.2419 19.7887L11.6377 17.1762L13.1398 16.1037C13.1301 16.0395 13.1252 15.9776 13.1252 15.918V15.5468C13.1252 15.4872 13.1301 15.4253 13.1398 15.3612L11.6377 14.2887L13.2419 11.6762L14.9773 12.3637C15.0842 12.2903 15.196 12.2216 15.3127 12.1574C15.4294 12.0933 15.546 12.0383 15.6627 11.9924L15.896 10.2324H19.1044L19.3377 11.9924C19.4641 12.0383 19.5832 12.0933 19.695 12.1574C19.8068 12.2216 19.9162 12.2903 20.0231 12.3637L21.7585 11.6762L23.3627 14.2887L21.8606 15.3612C21.8703 15.4253 21.8752 15.4872 21.8752 15.5468V15.918C21.8752 15.9776 21.8655 16.0395 21.846 16.1037L23.3481 17.1762L21.7439 19.7887L20.0231 19.1012C19.9162 19.1745 19.8044 19.2433 19.6877 19.3074C19.571 19.3716 19.4544 19.4266 19.3377 19.4724L19.1044 21.2324H15.896ZM16.9169 20.1324H18.0689L18.2731 18.6749C18.5745 18.6016 18.854 18.4939 19.1117 18.3518C19.3693 18.2097 19.6051 18.0378 19.8189 17.8362L21.2627 18.3999L21.8314 17.4649L20.5773 16.5712C20.6259 16.4428 20.6599 16.3076 20.6794 16.1655C20.6988 16.0235 20.7085 15.8791 20.7085 15.7324C20.7085 15.5858 20.6988 15.4414 20.6794 15.2993C20.6599 15.1572 20.6259 15.022 20.5773 14.8937L21.8314 13.9999L21.2627 13.0649L19.8189 13.6424C19.6051 13.4316 19.3693 13.2551 19.1117 13.113C18.854 12.971 18.5745 12.8633 18.2731 12.7899L18.0835 11.3324H16.9314L16.7273 12.7899C16.4259 12.8633 16.1464 12.971 15.8887 13.113C15.6311 13.2551 15.3953 13.427 15.1814 13.6287L13.7377 13.0649L13.1689 13.9999L14.4231 14.8799C14.3745 15.0174 14.3405 15.1549 14.321 15.2924C14.3016 15.4299 14.2919 15.5766 14.2919 15.7324C14.2919 15.8791 14.3016 16.0212 14.321 16.1587C14.3405 16.2962 14.3745 16.4337 14.4231 16.5712L13.1689 17.4649L13.7377 18.3999L15.1814 17.8224C15.3953 18.0333 15.6311 18.2097 15.8887 18.3518C16.1464 18.4939 16.4259 18.6016 16.7273 18.6749L16.9169 20.1324ZM17.5294 17.6574C18.0933 17.6574 18.5745 17.4695 18.9731 17.0937C19.3717 16.7178 19.571 16.2641 19.571 15.7324C19.571 15.2008 19.3717 14.747 18.9731 14.3712C18.5745 13.9953 18.0933 13.8074 17.5294 13.8074C16.9558 13.8074 16.4721 13.9953 16.0783 14.3712C15.6846 14.747 15.4877 15.2008 15.4877 15.7324C15.4877 16.2641 15.6846 16.7178 16.0783 17.0937C16.4721 17.4695 16.9558 17.6574 17.5294 17.6574Z" fill="url(#paint11_linear_32_282)"/>
</g>
<defs>
<linearGradient id="paint0_linear_32_282" x1="17.3309" y1="31.7689" x2="17.3309" y2="1.2373" gradientUnits="userSpaceOnUse">
<stop stop-color="#171D47"/>
<stop offset="1" stop-color="#352975"/>
</linearGradient>
<radialGradient id="paint1_radial_32_282" cx="0" cy="0" r="1" gradientUnits="userSpaceOnUse" gradientTransform="translate(17.3309 16.5025) scale(16.1044 15.1841)">
<stop stop-color="white"/>
<stop offset="1"/>
</radialGradient>
<linearGradient id="paint2_linear_32_282" x1="3.00092" y1="20.5325" x2="3.00092" y2="18.3954" gradientUnits="userSpaceOnUse">
<stop offset="0.03" stop-color="#947553"/>
<stop offset="0.24" stop-color="#473017"/>
<stop offset="0.77" stop-color="#CCAC68"/>
<stop offset="0.98" stop-color="#FFDE99"/>
</linearGradient>
<linearGradient id="paint3_linear_32_282" x1="31.6595" y1="1.23798" x2="31.6595" y2="18.3959" gradientUnits="userSpaceOnUse">
<stop offset="0.03" stop-color="#947553"/>
<stop offset="0.24" stop-color="#473017"/>
<stop offset="0.77" stop-color="#CCAC68"/>
<stop offset="0.98" stop-color="#FFDE99"/>
</linearGradient>
<linearGradient id="paint4_linear_32_282" x1="3.21522" y1="13.7794" x2="3.21522" y2="11.6422" gradientUnits="userSpaceOnUse">
<stop offset="0.03" stop-color="#947553"/>
<stop offset="0.24" stop-color="#473017"/>
<stop offset="0.77" stop-color="#CCAC68"/>
<stop offset="0.98" stop-color="#FFDE99"/>
</linearGradient>
<linearGradient id="paint5_linear_32_282" x1="31.4456" y1="13.7804" x2="31.4456" y2="11.6432" gradientUnits="userSpaceOnUse">
<stop offset="0.03" stop-color="#947553"/>
<stop offset="0.24" stop-color="#473017"/>
<stop offset="0.77" stop-color="#CCAC68"/>
<stop offset="0.98" stop-color="#FFDE99"/>
</linearGradient>
<linearGradient id="paint6_linear_32_282" x1="9.59484" y1="15.3731" x2="9.59484" y2="1.63135" gradientUnits="userSpaceOnUse">
<stop offset="0.03" stop-color="#947553"/>
<stop offset="0.24" stop-color="#473017"/>
<stop offset="0.77" stop-color="#CCAC68"/>
<stop offset="0.98" stop-color="#FFDE99"/>
</linearGradient>
<linearGradient id="paint7_linear_32_282" x1="9.56667" y1="31.3522" x2="9.56667" y2="16.7677" gradientUnits="userSpaceOnUse">
<stop offset="0.03" stop-color="#947553"/>
<stop offset="0.24" stop-color="#473017"/>
<stop offset="0.77" stop-color="#CCAC68"/>
<stop offset="0.98" stop-color="#FFDE99"/>
</linearGradient>
<linearGradient id="paint8_linear_32_282" x1="25.069" y1="15.3731" x2="25.069" y2="1.63135" gradientUnits="userSpaceOnUse">
<stop offset="0.03" stop-color="#947553"/>
<stop offset="0.24" stop-color="#473017"/>
<stop offset="0.77" stop-color="#CCAC68"/>
<stop offset="0.98" stop-color="#FFDE99"/>
</linearGradient>
<linearGradient id="paint9_linear_32_282" x1="25.0949" y1="31.3522" x2="25.0949" y2="16.7677" gradientUnits="userSpaceOnUse">
<stop offset="0.03" stop-color="#947553"/>
<stop offset="0.24" stop-color="#473017"/>
<stop offset="0.77" stop-color="#CCAC68"/>
<stop offset="0.98" stop-color="#FFDE99"/>
</linearGradient>
<linearGradient id="paint10_linear_32_282" x1="17.3309" y1="31.7689" x2="17.3309" y2="1.2373" gradientUnits="userSpaceOnUse">
<stop offset="0.03" stop-color="#947553"/>
<stop offset="0.24" stop-color="#473017"/>
<stop offset="0.77" stop-color="#CCAC68"/>
<stop offset="0.98" stop-color="#FFDE99"/>
</linearGradient>
<linearGradient id="paint11_linear_32_282" x1="22.0316" y1="12.0175" x2="14.6618" y2="17.182" gradientUnits="userSpaceOnUse">
<stop stop-color="#CEB900"/>
<stop offset="0.31" stop-color="#FAFBC0"/>
<stop offset="0.54" stop-color="#FEFFDC"/>
<stop offset="0.81" stop-color="#FFEC42"/>
<stop offset="1" stop-color="#C4FF9F"/>
</linearGradient>
</defs>
</svg>
